<svg width="14" height="16" viewBox="0 0 14 16" fill="none" xmlns="http://www.w3.org/2000/svg">
<path d="M3.11111 7.77778H4.66667V9.33333H3.11111V7.77778ZM14 3.11111V14C14 14.4126 13.8361 14.8082 13.5444 15.0999C13.2527 15.3917 12.857 15.5556 12.4444 15.5556H1.55556C0.692222 15.5556 0 14.8556 0 14V3.11111C0 2.69855 0.163888 2.30289 0.455612 2.01117C0.747335 1.71944 1.143 1.55556 1.55556 1.55556H2.33333V0H3.88889V1.55556H10.1111V0H11.6667V1.55556H12.4444C12.857 1.55556 13.2527 1.71944 13.5444 2.01117C13.8361 2.30289 14 2.69855 14 3.11111ZM1.55556 4.66667H12.4444V3.11111H1.55556V4.66667ZM12.4444 14V6.22222H1.55556V14H12.4444ZM9.33333 9.33333V7.77778H10.8889V9.33333H9.33333ZM6.22222 9.33333V7.77778H7.77778V9.33333H6.22222ZM3.11111 10.8889H4.66667V12.4444H3.11111V10.8889ZM9.33333 12.4444V10.8889H10.8889V12.4444H9.33333ZM6.22222 12.4444V10.8889H7.77778V12.4444H6.22222Z" fill="#F9769D"/>
</svg>
