<svg fill="none" xmlns="http://www.w3.org/2000/svg" viewBox="0 0 340 198"><g opacity=".1" clip-path="url(#a)"><path opacity=".014" d="M69.078 178.772c-3.267.89-6.627-.879-8.254-4.345L39.952 129.97c-.97-2.068-1.21-4.512-.667-6.798L57.05 48.393c.429-1.803 1.32-3.405 2.55-4.582l43.728-41.816c2.211-2.114 5.226-2.589 7.81-1.228l33.42 17.593c2.584 1.36 4.303 4.327 4.453 7.685l2.978 66.403c.084 1.868-.326 3.724-1.173 5.307l-35.112 65.648c-1.073 2.006-2.769 3.431-4.718 3.962l-41.908 11.407Z" stroke="url(#b)"/><path opacity=".029" d="M76.058 180.659c-3.194 1.083-6.591-.472-8.357-3.823l-22.548-42.798c-1.058-2.009-1.407-4.443-.968-6.769l14.168-75.16c.346-1.837 1.165-3.501 2.34-4.758l41.214-44.056c2.101-2.246 5.066-2.904 7.684-1.706l33.718 15.428c2.619 1.198 4.453 4.051 4.753 7.395l5.895 65.61c.168 1.871-.158 3.76-.933 5.403l-31.665 67.154c-.979 2.078-2.605 3.61-4.519 4.258l-40.782 13.822Z" stroke="url(#c)"/><path opacity=".043" d="M83.286 181.528c-3.147 1.261-6.61-.065-8.527-3.265l-24.373-40.686c-1.156-1.928-1.615-4.326-1.278-6.665l10.76-74.683c.266-1.852 1.018-3.56 2.147-4.883l39.088-45.755c2.009-2.351 4.949-3.184 7.624-2.16l34.285 13.127c2.674 1.024 4.637 3.735 5.09 7.028l8.8 64.092a10.45 10.45 0 0 1-.698 5.437l-28.547 67.873c-.894 2.126-2.461 3.747-4.358 4.507l-40.013 16.033Z" stroke="url(#d)"/><path opacity=".058" d="M90.509 183.369c-3.1 1.453-6.626.339-8.694-2.746L55.643 141.58c-1.253-1.869-1.825-4.255-1.592-6.633l7.372-75.022c.186-1.886.868-3.658 1.95-5.06l36.959-47.926c1.914-2.483 4.828-3.5 7.558-2.637l34.829 11c2.73.863 4.822 3.46 5.427 6.738l11.678 63.287c.342 1.853.182 3.79-.458 5.533l-25.438 69.315c-.807 2.197-2.315 3.927-4.192 4.806l-39.227 18.388Z" stroke="url(#e)"/><path opacity=".072" d="M97.363 184.193c-3.022 1.629-6.576.739-8.774-2.196l-27.683-36.971c-1.337-1.786-2.018-4.134-1.891-6.525l3.956-74.505c.1-1.9.706-3.716 1.73-5.185L99.185 9.278c1.801-2.586 4.659-3.775 7.416-3.085l35.015 8.766c2.757.69 4.958 3.146 5.71 6.372l14.399 61.77a10.618 10.618 0 0 1-.21 5.566L139.4 158.626c-.709 2.244-2.142 4.064-3.981 5.055l-38.056 20.512Z" stroke="url(#f)"/><path opacity=".087" d="M105.173 185.001c-2.942 1.793-6.521 1.129-8.846-1.641l-29.136-34.717c-1.422-1.694-2.21-3.99-2.19-6.379l.601-73.554c.016-1.902.543-3.75 1.506-5.279L99.134 12.62c1.687-2.675 4.487-4.028 7.27-3.512l35.161 6.523c2.783.516 5.089 2.816 5.987 5.97l17.053 59.916c.513 1.802.527 3.75.04 5.566l-18.835 70.171c-.612 2.279-1.968 4.178-3.766 5.274l-36.871 22.473Z" stroke="url(#g)"/><path opacity=".101" d="M112.333 185.781c-2.84 1.966-6.416 1.522-8.847-1.098l-30.327-32.678c-1.494-1.609-2.384-3.866-2.472-6.265l-2.68-72.999c-.07-1.915.375-3.807 1.27-5.401l29.37-52.335c1.56-2.779 4.281-4.302 7.067-3.957l35.026 4.345c2.787.346 5.18 2.504 6.216 5.604l19.509 58.399c.595 1.78.697 3.74.29 5.595l-15.48 70.746c-.509 2.325-1.777 4.314-3.522 5.522l-35.42 24.522Z" stroke="url(#h)"/><path opacity=".116" d="M119.678 185.552c-2.722 2.115-6.273 1.896-8.793-.545l-31.276-30.286c-1.556-1.506-2.54-3.695-2.735-6.078l-5.839-71.595c-.155-1.905.205-3.819 1.026-5.462l26.606-53.221c1.424-2.85 4.05-4.525 6.821-4.353l34.663 2.15c2.772.172 5.235 2.162 6.4 5.172l21.758 56.22c.672 1.736.86 3.684.537 5.559l-12.131 70.481c-.404 2.346-1.577 4.401-3.257 5.707l-33.78 26.251Z" stroke="url(#i)"/><path opacity=".13" d="M126.412 185.294c-2.632 2.275-6.192 2.275-8.824 0l-32.5-28.09c-1.633-1.41-2.723-3.544-3.025-5.922l-8.978-70.59c-.242-1.903.036-3.85.791-5.55l24.16-54.371c1.305-2.936 3.861-4.771 6.646-4.771h34.636c2.785 0 5.341 1.835 6.646 4.77l24.16 54.371c.756 1.702 1.033 3.648.791 5.552l-8.977 70.589c-.303 2.378-1.393 4.512-3.025 5.922l-32.501 28.09Z" stroke="url(#j)"/><path opacity=".145" d="M133.516 185.023c-2.517 2.42-6.048 2.639-8.764.544l-33.355-25.723c-1.692-1.305-2.875-3.367-3.282-5.724l-11.96-69.1a10.57 10.57 0 0 1 .547-5.604l21.505-55.124c1.17-3.002 3.632-4.985 6.4-5.156l34.241-2.124c2.768-.172 5.391 1.496 6.821 4.336l26.256 52.163c.833 1.654 1.197 3.585 1.039 5.505l-5.79 70.201c-.198 2.394-1.192 4.592-2.759 6.099l-30.899 29.707Z" stroke="url(#k)"/><path opacity=".159" d="M139.503 184.731c-2.4 2.562-5.902 2.999-8.699 1.084l-34.162-23.38c-1.75-1.198-3.026-3.188-3.539-5.522L78.247 89.305a10.64 10.64 0 0 1 .301-5.652l18.903-55.848c1.038-3.067 3.404-5.197 6.154-5.54l33.831-4.217c2.75-.342 5.437 1.157 6.99 3.902l28.281 49.966c.909 1.606 1.36 3.52 1.285 5.455l-2.679 69.794c-.093 2.409-.991 4.67-2.493 6.273l-29.317 31.293Z" stroke="url(#l)"/><path opacity=".174" d="M146.829 184.414c-2.3 2.705-5.795 3.358-8.69 1.625l-35.16-21.05c-1.819-1.089-3.196-3.006-3.818-5.316l-17.8-66.105c-.5-1.86-.48-3.86.055-5.702l16.451-56.544c.912-3.133 3.197-5.409 5.946-5.923l33.627-6.29c2.75-.514 5.518.817 7.205 3.463l30.442 47.774c.991 1.555 1.533 3.451 1.543 5.402l.37 69.366c.013 2.424-.795 4.749-2.24 6.449l-27.931 32.851Z" stroke="url(#m)"/><path opacity=".188" d="M153.662 184.106c-2.183 2.814-5.645 3.675-8.618 2.143l-35.892-18.499c-1.876-.967-3.345-2.786-4.073-5.044L84.497 98.891a10.48 10.48 0 0 1-.197-5.68l13.907-56.535c.778-3.16 2.965-5.554 5.694-6.232l33.181-8.252c2.729-.678 5.559.468 7.367 2.985l32.36 45.029c1.068 1.486 1.698 3.34 1.794 5.282l3.384 68.093c.12 2.409-.59 4.769-1.968 6.546l-26.357 33.979Z" stroke="url(#n)"/><path opacity=".203" d="M159.994 182.76c-2.025 2.939-5.386 4.009-8.374 2.669l-35.875-16.096c-1.895-.85-3.426-2.58-4.244-4.798l-22.859-61.913a10.638 10.638 0 0 1-.443-5.69l11.164-56.833c.63-3.205 2.677-5.73 5.331-6.575L136.772 23.3c2.655-.846 5.489.123 7.381 2.524l33.561 42.58c1.123 1.423 1.828 3.246 2.008 5.19l6.232 67.213c.223 2.407-.375 4.816-1.658 6.679l-24.302 35.273Z" stroke="url(#o)"/><path opacity=".217" d="M166.729 181.411c-1.909 3.043-5.239 4.317-8.304 3.176l-36.573-13.618c-1.951-.727-3.575-2.357-4.501-4.52l-25.53-59.628a10.46 10.46 0 0 1-.7-5.663l8.72-56.751c.496-3.229 2.446-5.868 5.08-6.875l31.645-12.1c2.635-1.008 5.531-.222 7.545 2.047l35.398 39.882c1.2 1.352 1.996 3.131 2.263 5.065l9.128 65.9c.331 2.39-.168 4.832-1.384 6.77l-22.787 36.315Z" stroke="url(#p)"/><path opacity=".232" d="M172.679 180.041c-1.776 3.146-5.041 4.62-8.151 3.678l-36.888-11.171c-1.989-.603-3.691-2.131-4.716-4.237l-27.91-57.344c-.83-1.706-1.164-3.685-.951-5.631l6.211-56.638c.357-3.252 2.19-6.003 4.779-7.17l30.891-13.941c2.588-1.168 5.517-.566 7.632 1.57l36.854 37.204c1.266 1.278 2.144 3.012 2.498 4.933l11.898 64.57c.437 2.371.043 4.845-1.092 6.857l-21.055 37.32Z" stroke="url(#q)"/><path opacity=".246" d="M178.588 178.647c-1.641 3.248-4.842 4.921-7.997 4.179l-37.188-8.748c-2.025-.476-3.804-1.902-4.929-3.949l-30.245-55.056c-.912-1.661-1.336-3.628-1.206-5.596l3.743-56.495c.217-3.273 1.934-6.136 4.475-7.464l30.141-15.751c2.542-1.329 5.502-.91 7.72 1.091l38.273 34.537c1.333 1.203 2.295 2.89 2.736 4.797l14.62 63.221c.544 2.351.256 4.856-.798 6.943l-19.345 38.291Z" stroke="url(#r)"/><path opacity=".261" d="M184.647 177.228c-1.492 3.35-4.596 5.221-7.764 4.68l-37.107-6.339c-2.042-.349-3.882-1.669-5.095-3.655l-32.227-52.759c-.986-1.615-1.497-3.57-1.451-5.559l1.288-56.326c.075-3.293 1.658-6.267 4.128-7.756l29.102-17.541c2.47-1.489 5.434-1.256 7.731.608l39.278 31.875c1.387 1.126 2.424 2.763 2.949 4.656l17.139 61.853c.646 2.329.467 4.865-.495 7.025l-17.476 39.238Z" stroke="url(#s)"/><path opacity=".275" d="M189.824 174.851c-1.329 3.404-4.307 5.447-7.453 5.113l-36.612-3.883c-2.037-.216-3.917-1.41-5.205-3.309l-33.778-49.767c-1.049-1.545-1.64-3.46-1.679-5.442l-1.095-55.378c-.065-3.268 1.37-6.31 3.743-7.939l27.774-19.056c2.373-1.628 5.308-1.583 7.657.118l39.809 28.816c1.426 1.032 2.526 2.596 3.127 4.448l19.379 59.647c.74 2.275.671 4.806-.19 7.011l-15.477 39.621Z" stroke="url(#t)"/><path opacity=".29" d="M195.801 173.421c-1.181 3.479-4.055 5.703-7.202 5.574l-36.389-1.501c-2.047-.084-3.979-1.161-5.351-2.981l-35.514-47.126c-1.119-1.485-1.793-3.37-1.917-5.359l-3.407-54.77c-.203-3.262 1.096-6.392 3.391-8.168l26.684-20.651c2.294-1.776 5.222-1.918 7.641-.37l40.598 25.986c1.474.944 2.644 2.445 3.328 4.267l21.679 57.833c.838 2.234.877 4.776.109 7.038l-13.65 40.228Z" stroke="url(#u)"/><path opacity=".304" d="M200.723 171.151c-1.033 3.53-3.805 5.92-6.954 5.994l-36.168.853c-2.056.049-4.042-.902-5.498-2.632L114.89 131.16c-1.19-1.413-1.95-3.256-2.158-5.237l-5.673-53.798c-.341-3.236.823-6.43 3.041-8.343l25.612-22.079c2.218-1.912 5.139-2.24 7.627-.854l41.369 23.026c1.523.848 2.766 2.275 3.531 4.054l23.933 55.654c.937 2.177 1.085 4.713.411 7.018l-11.86 40.55Z" stroke="url(#v)"/><path opacity=".319" d="M206.604 168.442c-.885 3.565-3.555 6.108-6.705 6.384l-35.944 3.149c-2.065.181-4.106-.639-5.647-2.271l-38.883-41.157c-1.261-1.336-2.107-3.129-2.403-5.094l-7.906-52.613c-.48-3.194.55-6.44 2.691-8.478l24.551-23.378c2.14-2.039 5.055-2.549 7.612-1.332l42.121 20.032c1.573.749 2.889 2.094 3.738 3.823l26.152 53.279c1.037 2.113 1.296 4.63.715 6.969l-10.092 40.687Z" stroke="url(#w)"/><path opacity=".333" d="M211.534 166.679c-.729 3.625-3.274 6.338-6.395 6.817l-35.387 5.43c-2.056.315-4.132-.38-5.745-1.924l-40.159-38.432c-1.323-1.266-2.248-3.021-2.628-4.983L111.192 81.79c-.615-3.176.271-6.495 2.314-8.673l23.279-24.814c2.043-2.178 4.924-2.874 7.528-1.818l42.465 17.22c1.609.653 2.987 1.926 3.912 3.616l28.088 51.298c1.129 2.061 1.496 4.578 1.016 6.966l-8.26 41.094Z" stroke="url(#x)"/><path opacity=".348" d="M216.47 164.133c-.569 3.627-2.967 6.465-6.032 7.138l-34.515 7.579c-2.028.446-4.121-.113-5.792-1.544l-41.022-35.157c-1.372-1.176-2.369-2.865-2.83-4.794l-11.994-50.184c-.743-3.107-.008-6.447 1.921-8.73l21.826-25.83c1.929-2.283 4.751-3.153 7.376-2.274l42.404 14.194c1.63.546 3.057 1.726 4.05 3.35l29.707 48.55c1.209 1.977 1.681 4.454 1.305 6.854l-6.404 40.848Z" stroke="url(#y)"/><path opacity=".362" d="M221.243 161.518c-.419 3.654-2.714 6.634-5.778 7.504l-34.274 9.726c-2.037.578-4.186.152-5.945-1.176l-42.61-32.195c-1.447-1.093-2.535-2.727-3.087-4.636l-14.147-48.943c-.884-3.06-.287-6.442 1.563-8.844L137.75 55.96c1.85-2.402 4.663-3.451 7.358-2.742l43.102 11.337c1.682.442 3.185 1.537 4.267 3.106l31.833 46.189c1.314 1.907 1.901 4.361 1.622 6.79l-4.689 40.878Z" stroke="url(#z)"/><path opacity=".377" d="M225.125 158.919c-.256 3.679-2.367 6.799-5.32 7.864l-32.808 11.835c-1.971.711-4.098.421-5.882-.803l-42.622-29.249c-1.471-1.009-2.611-2.587-3.234-4.475l-15.735-47.682c-.994-3.011-.554-6.433 1.151-8.953l19.023-28.122c1.704-2.52 4.409-3.747 7.076-3.21l42.232 8.512c1.672.337 3.198 1.344 4.329 2.856l32.76 43.828c1.371 1.834 2.05 4.265 1.879 6.721l-2.849 40.878Z" stroke="url(#A)"/><path opacity=".391" d="M229.857 156.328c-.103 3.701-2.09 6.958-5.012 8.219l-32.256 13.914c-1.96.845-4.124.692-5.982-.426l-43.765-26.315c-1.534-.922-2.758-2.441-3.469-4.307l-17.695-46.402c-1.129-2.96-.833-6.42.775-9.057l17.818-29.22c1.608-2.636 4.278-4.042 6.99-3.677l42.507 5.712c1.709.23 3.3 1.147 4.511 2.6l34.529 41.461c1.466 1.76 2.257 4.164 2.188 6.647l-1.139 40.851Z" stroke="url(#B)"/><path opacity=".406" d="M233.999 153.168c.052 3.657-1.781 6.992-4.63 8.424l-31.239 15.694a6.497 6.497 0 0 1-5.996-.039l-44.256-22.987c-1.578-.82-2.869-2.253-3.66-4.063l-19.375-44.333c-1.249-2.857-1.102-6.293.385-8.998l16.366-29.775c1.487-2.705 4.084-4.262 6.801-4.076l42.159 2.881c1.722.118 3.355.928 4.63 2.297l35.776 38.418c1.54 1.654 2.433 3.99 2.468 6.456l.571 40.101Z" stroke="url(#C)"/><path opacity=".42" d="M237.983 150.869c.206 3.64-1.473 7.074-4.245 8.683l-30.197 17.53c-1.878 1.09-4.05 1.215-6.002.345l-44.672-19.922c-1.618-.722-2.976-2.081-3.847-3.849l-20.994-42.633c-1.367-2.776-1.368-6.213-.004-9.005l14.919-30.52c1.364-2.791 3.885-4.508 6.604-4.498l41.755.158c1.733.006 3.408.716 4.746 2.01l36.943 35.734c1.614 1.562 2.608 3.846 2.748 6.313l2.246 39.654Z" stroke="url(#D)"/><path opacity=".435" d="M241.948 148.482c.36 3.635-1.165 7.178-3.859 8.97l-29.163 19.394c-1.836 1.22-4.011 1.486-6.01.734l-45.066-16.971c-1.661-.625-3.088-1.912-4.039-3.645l-22.581-41.1c-1.486-2.704-1.636-6.153-.394-9.04l13.489-31.355c1.242-2.887 3.686-4.77 6.406-4.936l41.346-2.521c1.743-.106 3.46.504 4.864 1.727l38.081 33.209c1.688 1.473 2.786 3.713 3.031 6.19l3.895 39.344Z" stroke="url(#E)"/><path opacity=".449" d="M244.895 144.727c.505 3.556-.841 7.135-3.41 9.07l-27.631 20.811c-1.76 1.326-3.9 1.727-5.909 1.107l-44.638-13.758c-1.674-.516-3.143-1.706-4.159-3.367l-23.719-38.777c-1.576-2.578-1.871-5.968-.772-8.891L146.51 79.39c1.099-2.923 3.424-4.932 6.096-5.27l40.201-5.07c1.723-.218 3.453.28 4.897 1.408l38.501 30.082c1.733 1.354 2.913 3.505 3.259 5.941l5.431 38.246Z" stroke="url(#F)"/><path opacity=".464" d="M248.821 142.07c.658 3.474-.534 7.081-3.024 9.152l-26.614 22.129c-1.716 1.427-3.857 1.96-5.914 1.472l-44.993-10.668c-1.718-.407-3.258-1.499-4.358-3.089l-25.244-36.49c-1.696-2.452-2.14-5.78-1.164-8.733l10.459-31.648c.975-2.953 3.223-5.082 5.895-5.585l39.78-7.497c1.733-.326 3.507.06 5.018 1.092l39.582 27.043c1.809 1.236 3.094 3.297 3.547 5.691l7.03 37.131Z" stroke="url(#G)"/><path opacity=".478" d="M251.729 139.823c.806 3.457-.221 7.156-2.608 9.399l-25.356 23.816c-1.654 1.554-3.779 2.23-5.865 1.865l-44.928-7.846c-1.746-.305-3.345-1.319-4.52-2.866l-26.526-34.918c-1.801-2.371-2.391-5.699-1.548-8.735l8.975-32.335c.842-3.036 2.99-5.322 5.637-6.001l38.992-9.997c1.729-.443 3.531-.163 5.097.792l40.287 24.566c1.871 1.14 3.25 3.15 3.809 5.545l8.554 36.715Z" stroke="url(#H)"/><path opacity=".493" d="M255.617 136.93c.953 3.403.092 7.156-2.191 9.547l-24.099 25.237c-1.592 1.667-3.699 2.481-5.815 2.246l-44.842-4.979c-1.776-.197-3.434-1.12-4.687-2.608l-27.784-33.004c-1.906-2.265-2.643-5.556-1.934-8.644l7.5-32.683c.709-3.088 2.757-5.508 5.378-6.357l38.195-12.362c1.723-.558 3.554-.389 5.176.477l40.967 21.865c1.933 1.032 3.409 2.967 4.074 5.34l10.062 35.925Z" stroke="url(#I)"/><path opacity=".507" d="M257.497 134.46c1.073 3.314.397 7.077-1.721 9.587l-22.227 26.343c-1.486 1.762-3.519 2.705-5.607 2.602l-43.538-2.14c-1.757-.086-3.431-.908-4.727-2.321L151.43 137.75c-1.96-2.136-2.821-5.355-2.263-8.461l5.867-32.663c.557-3.106 2.451-5.632 4.975-6.64l36.383-14.523a6.36 6.36 0 0 1 5.117.155l40.509 19.002c1.943.912 3.476 2.752 4.228 5.077l11.251 34.763Z" stroke="url(#J)"/><path opacity=".522" d="M260.352 131.877c1.207 3.267.7 7.09-1.293 9.752l-20.796 27.767c-1.408 1.88-3.403 2.967-5.502 2.996l-43.015.607c-1.771.026-3.49-.704-4.854-2.061l-29.173-29.008c-2.046-2.035-3.044-5.224-2.625-8.388l4.388-33.072c.419-3.163 2.194-5.828 4.667-7.009l35.252-16.824a6.32 6.32 0 0 1 5.15-.17l40.753 16.45c1.988.802 3.604 2.571 4.456 4.879l12.592 34.081Z" stroke="url(#K)"/><path opacity=".536" d="M263.187 129.626c1.341 3.115 1.003 6.871-.865 9.594l-19.372 28.24c-1.328 1.936-3.283 3.129-5.391 3.29l-42.476 3.231c-1.784.136-3.55-.479-4.982-1.734l-30.072-26.357c-2.132-1.87-3.268-4.926-2.987-8.043l2.921-32.396c.281-3.117 1.937-5.831 4.356-7.143l34.116-18.493c1.624-.88 3.461-1.054 5.182-.489l40.971 13.457c2.033.667 3.734 2.309 4.687 4.525l13.912 32.318Z" stroke="url(#L)"/><path opacity=".551" d="M265.02 127.612c1.447 3.031 1.281 6.796-.426 9.631l-17.609 29.247c-1.223 2.031-3.102 3.354-5.179 3.647l-41.126 5.802c-1.764.248-3.542-.264-5.016-1.446l-30.366-24.341c-2.178-1.745-3.426-4.733-3.288-7.867l1.434-32.386c.138-3.133 1.644-5.95 3.964-7.417l32.347-20.448c1.57-.993 3.385-1.283 5.116-.817l40.39 10.86c2.039.55 3.791 2.098 4.828 4.27l14.931 31.265Z" stroke="url(#M)"/><path opacity=".565" d="M267.816 125.67c1.579 2.944 1.579 6.715 0 9.661l-16.203 30.219c-1.139 2.125-2.976 3.579-5.062 4.007l-40.552 8.313c-1.775.364-3.602-.044-5.146-1.15l-31.205-22.352c-2.263-1.621-3.648-4.538-3.648-7.687v-32.362c0-3.148 1.385-6.066 3.648-7.687l31.205-22.352c1.544-1.106 3.371-1.514 5.146-1.15l40.552 8.313c2.086.427 3.923 1.882 5.062 4.007l16.203 30.22Z" stroke="url(#N)"/><path opacity=".58" d="M269.608 123.374c1.688 2.828 1.854 6.562.426 9.583l-14.58 30.833c-1.038 2.196-2.807 3.767-4.87 4.326l-39.402 10.662c-1.763.477-3.612.179-5.206-.839l-31.588-20.167c-2.317-1.48-3.818-4.296-3.957-7.424l-1.421-31.983c-.138-3.128 1.105-6.113 3.279-7.871l29.628-23.953c1.496-1.21 3.308-1.734 5.104-1.477l40.13 5.743c2.101.301 3.999 1.645 5.227 3.702l17.23 28.865Z" stroke="url(#O)"/><path opacity=".594" d="M271.383 121.201c1.794 2.711 2.124 6.406.846 9.498l-12.979 31.4c-.937 2.266-2.635 3.952-4.676 4.642l-38.247 12.92c-1.75.591-3.621.405-5.267-.525l-31.941-18.038c-2.37-1.338-3.986-4.051-4.263-7.157l-2.814-31.59c-.277-3.105.826-6.155 2.908-8.046l28.064-25.478c1.446-1.313 3.244-1.954 5.06-1.806l39.688 3.257c2.118.173 4.076 1.406 5.392 3.393l18.229 27.53Z" stroke="url(#P)"/><path opacity=".609" d="M273.139 119.137c1.899 2.593 2.39 6.246 1.263 9.405l-11.394 31.925c-.834 2.334-2.461 4.135-4.477 4.956l-37.087 15.096c-1.735.706-3.63.633-5.327-.206l-32.269-15.956c-2.422-1.198-4.151-3.807-4.565-6.887l-4.188-31.184c-.414-3.081.547-6.191 2.536-8.213l26.509-26.934c1.394-1.417 3.177-2.177 5.013-2.138l39.227.843c2.133.045 4.152 1.166 5.556 3.082l19.203 26.211Z" stroke="url(#Q)"/><path opacity=".623" d="M275.875 117.522c2.003 2.461 2.654 6.05 1.678 9.254l-9.82 32.232c-.728 2.389-2.281 4.295-4.273 5.243l-35.916 17.103a6.486 6.486 0 0 1-5.388.117l-32.573-13.837c-2.474-1.051-4.316-3.54-4.867-6.577l-5.547-30.594c-.551-3.037.267-6.189 2.163-8.328l24.955-28.17c1.341-1.514 3.107-2.39 4.963-2.462l38.746-1.498c2.148-.083 4.229.917 5.722 2.752l20.157 24.765Z" stroke="url(#R)"/><path opacity=".638" d="M276.639 115.855c2.064 2.336 2.857 5.866 2.05 9.119l-8.083 32.58c-.606 2.446-2.054 4.461-3.978 5.54l-34.025 19.067c-1.67.936-3.571 1.095-5.338.447l-32.186-11.804c-2.474-.907-4.387-3.282-5.061-6.281l-6.759-30.067c-.674-2.999-.013-6.197 1.749-8.456l22.923-29.407c1.258-1.615 2.971-2.61 4.809-2.795l37.465-3.767c2.119-.213 4.218.67 5.769 2.427l20.665 23.397Z" stroke="url(#S)"/><path opacity=".652" d="M278.339 114.232c2.164 2.211 3.112 5.682 2.456 8.982l-6.543 32.911c-.498 2.505-1.867 4.63-3.764 5.841l-32.846 20.975c-1.652 1.055-3.575 1.333-5.396.783l-32.438-9.815c-2.523-.764-4.546-3.024-5.355-5.985l-8.078-29.546c-.809-2.96-.29-6.202 1.373-8.582l21.389-30.602c1.201-1.718 2.895-2.835 4.753-3.136l36.946-5.977c2.133-.345 4.292.418 5.934 2.096l21.569 22.055Z" stroke="url(#T)"/><path opacity=".667" d="M280.048 112.403c2.239 2.065 3.331 5.441 2.833 8.751l-4.945 32.876c-.381 2.536-1.656 4.75-3.502 6.082l-31.314 22.593c-1.614 1.164-3.539 1.563-5.395 1.117l-32.328-7.778c-2.544-.612-4.654-2.735-5.59-5.625l-9.298-28.719c-.936-2.89-.566-6.142.98-8.616l19.634-31.427c1.127-1.804 2.783-3.035 4.64-3.45l36.021-8.053c2.124-.475 4.321.16 6.036 1.741l22.228 20.508Z" stroke="url(#U)"/><path opacity=".681" d="M281.74 111.637c2.311 1.921 3.545 5.201 3.204 8.52l-3.367 32.825c-.264 2.567-1.442 4.87-3.236 6.323l-29.781 24.137c-1.575 1.277-3.501 1.797-5.391 1.456l-32.19-5.806c-2.565-.462-4.76-2.449-5.82-5.269l-10.495-27.905c-1.061-2.82-.84-6.08.586-8.646l17.895-32.203c1.051-1.892 2.666-3.238 4.522-3.77l35.079-10.049c2.113-.605 4.347-.1 6.134 1.385l22.86 19.002Z" stroke="url(#V)"/><path opacity=".696" d="M282.454 111.52c2.355 1.741 3.711 4.857 3.53 8.112l-1.787 32.062c-.142 2.541-1.209 4.883-2.928 6.426l-27.929 25.071c-1.517 1.361-3.42 1.992-5.325 1.763l-31.667-3.805c-2.554-.307-4.806-2.119-5.976-4.809l-11.542-26.524c-1.171-2.69-1.099-5.889.19-8.489l15.985-32.235c.961-1.938 2.515-3.371 4.348-4.008l33.738-11.721c2.076-.722 4.321-.356 6.16 1.004l23.203 17.153Z" stroke="url(#W)"/><path opacity=".71" d="M283.159 109.883c2.394 1.602 3.867 4.625 3.841 7.883l-.255 31.983c-.021 2.571-.974 5.001-2.616 6.666l-26.096 26.462c-1.455 1.477-3.334 2.232-5.25 2.11l-31.109-1.971c-2.54-.161-4.845-1.84-6.121-4.46l-12.54-25.74c-1.276-2.62-1.351-5.825-.199-8.512l14.114-32.915c.869-2.027 2.361-3.577 4.167-4.334l32.386-13.55c2.038-.853 4.29-.617 6.179.647l23.499 15.731Z" stroke="url(#X)"/><path opacity=".725" d="M285.508 109.112c2.48 1.448 4.097 4.345 4.226 7.57l1.258 31.54c.102 2.571-.755 5.063-2.351 6.834l-24.794 27.503c-1.421 1.577-3.313 2.452-5.279 2.441l-31.165-.17c-2.577-.014-4.979-1.542-6.387-4.064l-13.777-24.682c-1.407-2.522-1.631-5.697-.594-8.441l12.543-33.194c.792-2.094 2.247-3.749 4.064-4.618l31.68-15.166c2.04-.976 4.345-.874 6.322.28l24.254 14.167Z" stroke="url(#Y)"/><path opacity=".739" d="M285.752 108.464c2.497 1.302 4.212 4.087 4.491 7.291l2.717 31.231c.225 2.581-.51 5.147-2.016 7.032l-22.843 28.608c-1.347 1.687-3.199 2.687-5.164 2.789l-30.377 1.576c-2.544.132-4.977-1.254-6.477-3.688l-14.629-23.748c-1.5-2.435-1.866-5.593-.974-8.405l10.658-33.585c.69-2.172 2.069-3.94 3.846-4.93l30.129-16.782c1.984-1.106 4.281-1.138 6.293-.088l24.346 12.699Z" stroke="url(#Z)"/><path opacity=".754" d="M286.934 108.58c2.541 1.131 4.371 3.742 4.801 6.85l4.17 30.199c.349 2.531-.272 5.11-1.702 7.065l-21.194 28.983c-1.287 1.759-3.12 2.864-5.106 3.076l-29.937 3.209c-2.54.272-5.031-.942-6.638-3.235l-15.624-22.29c-1.607-2.294-2.118-5.361-1.359-8.174l8.941-33.165c.593-2.2 1.91-4.042 3.667-5.13l28.944-17.925c1.952-1.21 4.265-1.375 6.336-.454l24.701 10.991Z" stroke="url(#aa)"/><path opacity=".768" d="M288.249 108.024c2.553.989 4.47 3.486 5.042 6.567l5.536 29.84c.47 2.537-.027 5.187-1.362 7.256l-19.312 29.943c-1.207 1.872-2.997 3.107-4.979 3.437l-29.117 4.845c-2.502.416-5.017-.656-6.709-2.86l-16.396-21.355c-1.692-2.204-2.339-5.25-1.724-8.124l7.152-33.453c.487-2.277 1.722-4.235 3.435-5.447l27.411-19.395c1.895-1.34 4.194-1.643 6.296-.83l24.727 9.576Z" stroke="url(#ab)"/><path opacity=".783" d="M288.608 107.494c2.56.845 4.559 3.229 5.268 6.281l6.849 29.471c.591 2.542.219 5.265-1.019 7.451l-17.471 30.87c-1.125 1.989-2.869 3.361-4.845 3.812l-28.282 6.46c-2.461.562-4.997-.367-6.769-2.48l-17.124-20.416c-1.772-2.114-2.552-5.137-2.08-8.072l5.418-33.721c.379-2.356 1.53-4.435 3.198-5.777l25.89-20.831c1.834-1.475 4.118-1.919 6.249-1.214l24.718 8.166Z" stroke="url(#ac)"/><path opacity=".797" d="M289.009 107.83c2.562.687 4.638 2.908 5.48 5.864l8.112 28.471c.71 2.49.464 5.227-.674 7.485l-15.67 31.093c-1.041 2.065-2.736 3.548-4.704 4.114l-27.431 7.891c-2.42.696-4.972-.07-6.82-2.048l-17.808-19.054c-1.849-1.978-2.757-4.914-2.427-7.846l3.736-33.242c.268-2.386 1.332-4.545 2.952-5.99l24.384-21.768c1.771-1.581 4.035-2.159 6.194-1.58l24.676 6.61Z" stroke="url(#ad)"/><path opacity=".812" d="M291.24 108.242c2.596.531 4.771 2.593 5.755 5.454l9.453 27.482c.839 2.439.717 5.19-.333 7.519l-14.095 31.267c-.966 2.143-2.632 3.738-4.617 4.42l-26.926 9.253c-2.407.828-5.005.22-6.952-1.625l-18.699-17.723c-1.947-1.845-2.995-4.693-2.804-7.62l2.136-32.749c.157-2.415 1.143-4.653 2.734-6.205l23.2-22.637c1.728-1.686 4.002-2.398 6.215-1.944l24.933 5.108Z" stroke="url(#ae)"/><path opacity=".826" d="M291.692 107.757c2.593.385 4.835 2.312 5.946 5.109l10.638 26.794a10.57 10.57 0 0 1 .021 7.636l-12.352 31.745c-.875 2.247-2.486 3.975-4.46 4.785l-26.045 10.675c-2.359.967-4.966.511-6.983-1.221l-19.316-16.6c-2.016-1.732-3.188-4.524-3.14-7.477l.536-32.597c.041-2.471.933-4.817 2.469-6.495l21.708-23.705c1.661-1.813 3.91-2.668 6.147-2.336l24.831 3.687Z" stroke="url(#af)"/><path opacity=".841" d="M293.186 109.245c2.584.232 4.888 1.984 6.12 4.656l11.774 25.521c1.077 2.333 1.215 5.11.379 7.583l-10.647 31.486c-.779 2.302-2.331 4.13-4.291 5.05l-25.145 11.814c-2.309 1.085-4.92.789-7.002-.794l-19.887-15.129c-2.082-1.583-3.375-4.257-3.468-7.17l-1.014-31.712c-.079-2.471.715-4.876 2.194-6.645l20.226-24.2c1.588-1.901 3.81-2.882 6.067-2.679l24.694 2.219Z" stroke="url(#ag)"/><path opacity=".855" d="M293.138 109.81c2.519.085 4.83 1.667 6.151 4.214l12.596 24.264c1.169 2.251 1.434 5.008.724 7.525l-8.794 31.181c-.665 2.358-2.124 4.284-4.028 5.317l-23.727 12.88c-2.21 1.199-4.767 1.059-6.865-.378l-19.993-13.693c-2.098-1.436-3.479-3.992-3.708-6.863l-2.46-30.815c-.198-2.471.479-4.933 1.868-6.795l18.367-24.625c1.483-1.987 3.628-3.093 5.856-3.018l24.013.806Z" stroke="url(#ah)"/><path opacity=".87" d="M294.566 111.002c2.525-.059 4.903 1.364 6.346 3.798l13.724 23.139c1.292 2.179 1.692 4.929 1.089 7.501l-7.26 30.994c-.568 2.425-1.973 4.462-3.872 5.614l-23.001 13.955c-2.173 1.318-4.746 1.33-6.917.031l-20.634-12.351c-2.171-1.299-3.675-3.751-4.044-6.591l-3.909-30.06c-.323-2.482.254-5.015 1.59-6.98l17.079-25.118c1.417-2.084 3.546-3.321 5.806-3.374l24.003-.558Z" stroke="url(#ai)"/><path opacity=".884" d="M295.319 112.02c2.491-.198 4.901 1.058 6.442 3.357l14.62 21.816c1.398 2.085 1.928 4.801 1.444 7.404l-5.665 30.493c-.459 2.471-1.787 4.602-3.653 5.865l-21.947 14.851c-2.104 1.423-4.654 1.583-6.863.432l-20.957-10.921c-2.21-1.151-3.813-3.476-4.317-6.258l-5.257-29.027c-.447-2.468.018-5.049 1.28-7.101l15.571-25.331c1.329-2.163 3.407-3.519 5.667-3.699l23.635-1.881Z" stroke="url(#aj)"/><path opacity=".899" d="M296.758 113.059c2.493-.334 4.964.758 6.623 2.926l15.695 20.512c1.524 1.991 2.193 4.672 1.825 7.306l-4.193 29.971c-.352 2.516-1.618 4.744-3.476 6.119l-21.213 15.696c-2.063 1.527-4.624 1.834-6.903.827l-21.557-9.522c-2.278-1.006-4.003-3.206-4.648-5.929l-6.637-27.997c-.582-2.454-.227-5.083.975-7.224l14.312-25.501c1.258-2.241 3.314-3.718 5.604-4.025l23.593-3.159Z" stroke="url(#ak)"/><path opacity=".913" d="M297.31 114.119c2.384-.471 4.804.471 6.502 2.532l16.025 19.458c1.58 1.918 2.358 4.595 2.121 7.291l-2.62 29.781c-.228 2.594-1.374 4.948-3.143 6.456l-19.578 16.698c-1.932 1.647-4.39 2.103-6.633 1.23l-21.18-8.246c-2.243-.873-4.009-2.974-4.763-5.667l-7.648-27.296c-.691-2.467-.463-5.178.624-7.437l12.49-25.939c1.131-2.349 3.074-3.966 5.292-4.405l22.511-4.456Z" stroke="url(#al)"/><path opacity=".928" d="M299.193 115.2c2.345-.604 4.783.179 6.562 2.107l16.764 18.17c1.678 1.819 2.586 4.458 2.471 7.184l-1.229 29.215c-.111 2.642-1.17 5.098-2.901 6.727l-18.566 17.472c-1.86 1.751-4.287 2.35-6.558 1.621l-21.395-6.872c-2.271-.73-4.123-2.704-5.004-5.335l-8.791-26.26c-.819-2.448-.712-5.21.293-7.564l11.121-26.038c1.038-2.43 2.925-4.171 5.136-4.74l22.097-5.687Z" stroke="url(#am)"/><path opacity=".942" d="M300.049 117.297c2.3-.724 4.747-.107 6.601 1.667l17.429 16.68c1.771 1.696 2.807 4.263 2.817 6.985l.104 28.279c.01 2.656-.958 5.187-2.645 6.919l-17.536 17.994c-1.784 1.83-4.173 2.564-6.465 1.985l-21.543-5.441c-2.292-.579-4.224-2.404-5.226-4.937l-9.861-24.914c-.948-2.397-.966-5.177-.048-7.599l9.776-25.783c.941-2.483 2.766-4.327 4.965-5.02l21.632-6.815Z" stroke="url(#an)"/><path opacity=".957" d="M300.85 118.414c2.248-.842 4.693-.384 6.611 1.237l17.999 15.215c1.859 1.571 3.019 4.064 3.155 6.78l1.372 27.329c.133 2.669-.736 5.275-2.373 7.11l-16.474 18.466c-1.702 1.907-4.045 2.771-6.347 2.34l-21.603-4.043c-2.302-.431-4.304-2.109-5.424-4.544l-10.84-23.578c-1.077-2.343-1.222-5.139-.397-7.629l8.45-25.491c.84-2.533 2.595-4.48 4.774-5.296l21.097-7.896Z" stroke="url(#ao)"/><path opacity=".971" d="M302.729 121.542c2.196-.942 4.638-.645 6.616.807l18.538 13.591c1.945 1.426 3.23 3.811 3.494 6.483l2.573 26.023c.261 2.646-.507 5.293-2.093 7.208L316.414 194.3c-1.621 1.956-3.917 2.934-6.228 2.652l-21.65-2.639c-2.311-.282-4.382-1.793-5.616-4.097l-11.764-21.964c-1.208-2.255-1.486-5.029-.755-7.555l7.179-24.833c.738-2.55 2.422-4.573 4.58-5.499l20.569-8.823Z" stroke="url(#ap)"/><path opacity=".986" d="M303.679 122.703c2.143-1.064 4.58-.914 6.617.406l19.045 12.344c2.031 1.316 3.443 3.652 3.837 6.348l3.712 25.387c.391 2.692-.272 5.449-1.805 7.496l-14.441 19.276c-1.539 2.055-3.787 3.17-6.106 3.028l-21.684-1.328c-2.319-.142-4.456-1.526-5.803-3.758l-12.638-20.935c-1.342-2.223-1.755-5.046-1.123-7.674l5.961-24.796c.633-2.633 2.246-4.784 4.383-5.844l20.045-9.95Z" stroke="url(#aq)"/><path d="M305.797 124.878c2.026-1.171 4.38-1.171 6.406 0l18.915 10.93c2.049 1.184 3.541 3.437 4.05 6.118l4.641 24.399c.514 2.698-.023 5.532-1.457 7.689l-13.041 19.624c-1.414 2.126-3.545 3.362-5.797 3.362h-21.028c-2.252 0-4.384-1.236-5.797-3.362l-13.042-19.624c-1.433-2.157-1.97-4.991-1.457-7.689l4.642-24.399c.509-2.681 2.001-4.934 4.05-6.118l18.915-10.93Z" stroke="url(#ar)"/></g><defs><linearGradient id="b" x1="63.233" y1="181.163" x2="156.132" y2="4.696" gradientUnits="userSpaceOnUse"><stop stop-color="#FF1CF7"/><stop offset="1" stop-color="#00F0FF"/></linearGradient><linearGradient id="c" x1="70.383" y1="183.394" x2="153.217" y2="2.348" gradientUnits="userSpaceOnUse"><stop stop-color="#FF1CF7"/><stop offset="1" stop-color="#00F0FF"/></linearGradient><linearGradient id="d" x1="77.733" y1="184.572" x2="148.384" y2=".053" gradientUnits="userSpaceOnUse"><stop stop-color="#FF1CF7"/><stop offset="1" stop-color="#00F0FF"/></linearGradient><linearGradient id="e" x1="85.08" y1="186.754" x2="144.789" y2="-2.292" gradientUnits="userSpaceOnUse"><stop stop-color="#FF1CF7"/><stop offset="1" stop-color="#00F0FF"/></linearGradient><linearGradient id="f" x1="92.112" y1="187.881" x2="139.972" y2="-3.291" gradientUnits="userSpaceOnUse"><stop stop-color="#FF1CF7"/><stop offset="1" stop-color="#00F0FF"/></linearGradient><linearGradient id="g" x1="100.103" y1="188.967" x2="135.693" y2="-2.892" gradientUnits="userSpaceOnUse"><stop stop-color="#FF1CF7"/><stop offset="1" stop-color="#00F0FF"/></linearGradient><linearGradient id="h" x1="107.481" y1="190.043" x2="131.426" y2="-2.987" gradientUnits="userSpaceOnUse"><stop stop-color="#FF1CF7"/><stop offset="1" stop-color="#00F0FF"/></linearGradient><linearGradient id="i" x1="115.07" y1="190.061" x2="126.953" y2="-1.57" gradientUnits="userSpaceOnUse"><stop stop-color="#FF1CF7"/><stop offset="1" stop-color="#00F0FF"/></linearGradient><linearGradient id="j" x1="122" y1="190.071" x2="122" y2="-.788" gradientUnits="userSpaceOnUse"><stop stop-color="#FF1CF7"/><stop offset="1" stop-color="#00F0FF"/></linearGradient><linearGradient id="k" x1="129.343" y1="190.035" x2="117.662" y2="1.688" gradientUnits="userSpaceOnUse"><stop stop-color="#FF1CF7"/><stop offset="1" stop-color="#00F0FF"/></linearGradient><linearGradient id="l" x1="135.57" y1="189.975" x2="112.462" y2="4.586" gradientUnits="userSpaceOnUse"><stop stop-color="#FF1CF7"/><stop offset="1" stop-color="#00F0FF"/></linearGradient><linearGradient id="m" x1="143.109" y1="189.89" x2="109.054" y2="7.821" gradientUnits="userSpaceOnUse"><stop stop-color="#FF1CF7"/><stop offset="1" stop-color="#00F0FF"/></linearGradient><linearGradient id="n" x1="150.183" y1="189.746" x2="106.313" y2="13.337" gradientUnits="userSpaceOnUse"><stop stop-color="#FF1CF7"/><stop offset="1" stop-color="#00F0FF"/></linearGradient><linearGradient id="o" x1="156.82" y1="188.593" x2="102.349" y2="17.672" gradientUnits="userSpaceOnUse"><stop stop-color="#FF1CF7"/><stop offset="1" stop-color="#00F0FF"/></linearGradient><linearGradient id="p" x1="163.792" y1="187.4" x2="100.724" y2="22.461" gradientUnits="userSpaceOnUse"><stop stop-color="#FF1CF7"/><stop offset="1" stop-color="#00F0FF"/></linearGradient><linearGradient id="q" x1="170.008" y1="186.181" x2="98.472" y2="27.659" gradientUnits="userSpaceOnUse"><stop stop-color="#FF1CF7"/><stop offset="1" stop-color="#00F0FF"/></linearGradient><linearGradient id="r" x1="176.182" y1="184.936" x2="96.72" y2="32.88" gradientUnits="userSpaceOnUse"><stop stop-color="#FF1CF7"/><stop offset="1" stop-color="#00F0FF"/></linearGradient><linearGradient id="s" x1="182.53" y1="183.664" x2="95.225" y2="38.818" gradientUnits="userSpaceOnUse"><stop stop-color="#FF1CF7"/><stop offset="1" stop-color="#00F0FF"/></linearGradient><linearGradient id="t" x1="188.01" y1="181.344" x2="94.79" y2="45.474" gradientUnits="userSpaceOnUse"><stop stop-color="#FF1CF7"/><stop offset="1" stop-color="#00F0FF"/></linearGradient><linearGradient id="u" x1="194.272" y1="180.009" x2="95.195" y2="51.993" gradientUnits="userSpaceOnUse"><stop stop-color="#FF1CF7"/><stop offset="1" stop-color="#00F0FF"/></linearGradient><linearGradient id="v" x1="199.476" y1="177.79" x2="95.821" y2="57.549" gradientUnits="userSpaceOnUse"><stop stop-color="#FF1CF7"/><stop offset="1" stop-color="#00F0FF"/></linearGradient><linearGradient id="w" x1="205.64" y1="175.102" x2="98.202" y2="62.273" gradientUnits="userSpaceOnUse"><stop stop-color="#FF1CF7"/><stop offset="1" stop-color="#00F0FF"/></linearGradient><linearGradient id="x" x1="210.859" y1="173.405" x2="99.143" y2="68.598" gradientUnits="userSpaceOnUse"><stop stop-color="#FF1CF7"/><stop offset="1" stop-color="#00F0FF"/></linearGradient><linearGradient id="y" x1="216.087" y1="170.819" x2="102.177" y2="74.569" gradientUnits="userSpaceOnUse"><stop stop-color="#FF1CF7"/><stop offset="1" stop-color="#00F0FF"/></linearGradient><linearGradient id="z" x1="221.146" y1="168.209" x2="104.156" y2="78.13" gradientUnits="userSpaceOnUse"><stop stop-color="#FF1CF7"/><stop offset="1" stop-color="#00F0FF"/></linearGradient><linearGradient id="A" x1="225.312" y1="165.611" x2="106.733" y2="85.398" gradientUnits="userSpaceOnUse"><stop stop-color="#FF1CF7"/><stop offset="1" stop-color="#00F0FF"/></linearGradient><linearGradient id="B" x1="230.33" y1="163.015" x2="109.368" y2="89.255" gradientUnits="userSpaceOnUse"><stop stop-color="#FF1CF7"/><stop offset="1" stop-color="#00F0FF"/></linearGradient><linearGradient id="C" x1="234.75" y1="159.733" x2="113.316" y2="92.986" gradientUnits="userSpaceOnUse"><stop stop-color="#FF1CF7"/><stop offset="1" stop-color="#00F0FF"/></linearGradient><linearGradient id="D" x1="239.01" y1="157.358" x2="116.724" y2="97.584" gradientUnits="userSpaceOnUse"><stop stop-color="#FF1CF7"/><stop offset="1" stop-color="#00F0FF"/></linearGradient><linearGradient id="E" x1="243.25" y1="154.917" x2="119.968" y2="101.883" gradientUnits="userSpaceOnUse"><stop stop-color="#FF1CF7"/><stop offset="1" stop-color="#00F0FF"/></linearGradient><linearGradient id="F" x1="246.445" y1="150.978" x2="124.448" y2="105.117" gradientUnits="userSpaceOnUse"><stop stop-color="#FF1CF7"/><stop offset="1" stop-color="#00F0FF"/></linearGradient><linearGradient id="G" x1="250.645" y1="148.133" x2="128.117" y2="107.642" gradientUnits="userSpaceOnUse"><stop stop-color="#FF1CF7"/><stop offset="1" stop-color="#00F0FF"/></linearGradient><linearGradient id="H" x1="253.81" y1="145.81" x2="131.037" y2="111.734" gradientUnits="userSpaceOnUse"><stop stop-color="#FF1CF7"/><stop offset="1" stop-color="#00F0FF"/></linearGradient><linearGradient id="I" x1="257.955" y1="142.777" x2="135.057" y2="114.572" gradientUnits="userSpaceOnUse"><stop stop-color="#FF1CF7"/><stop offset="1" stop-color="#00F0FF"/></linearGradient><linearGradient id="J" x1="260.024" y1="140.106" x2="140.041" y2="118.557" gradientUnits="userSpaceOnUse"><stop stop-color="#FF1CF7"/><stop offset="1" stop-color="#00F0FF"/></linearGradient><linearGradient id="K" x1="263.107" y1="137.396" x2="143.842" y2="121.576" gradientUnits="userSpaceOnUse"><stop stop-color="#FF1CF7"/><stop offset="1" stop-color="#00F0FF"/></linearGradient><linearGradient id="L" x1="266.168" y1="134.841" x2="147.592" y2="124.15" gradientUnits="userSpaceOnUse"><stop stop-color="#FF1CF7"/><stop offset="1" stop-color="#00F0FF"/></linearGradient><linearGradient id="M" x1="268.165" y1="132.636" x2="152.277" y2="127.508" gradientUnits="userSpaceOnUse"><stop stop-color="#FF1CF7"/><stop offset="1" stop-color="#00F0FF"/></linearGradient><linearGradient id="N" x1="271.182" y1="130.5" x2="155.657" y2="130.5" gradientUnits="userSpaceOnUse"><stop stop-color="#FF1CF7"/><stop offset="1" stop-color="#00F0FF"/></linearGradient><linearGradient id="O" x1="273.146" y1="127.96" x2="159.453" y2="133.009" gradientUnits="userSpaceOnUse"><stop stop-color="#FF1CF7"/><stop offset="1" stop-color="#00F0FF"/></linearGradient><linearGradient id="P" x1="275.088" y1="125.543" x2="163.091" y2="135.52" gradientUnits="userSpaceOnUse"><stop stop-color="#FF1CF7"/><stop offset="1" stop-color="#00F0FF"/></linearGradient><linearGradient id="Q" x1="277.008" y1="123.234" x2="166.586" y2="138.065" gradientUnits="userSpaceOnUse"><stop stop-color="#FF1CF7"/><stop offset="1" stop-color="#00F0FF"/></linearGradient><linearGradient id="R" x1="279.906" y1="121.354" x2="170.99" y2="141.105" gradientUnits="userSpaceOnUse"><stop stop-color="#FF1CF7"/><stop offset="1" stop-color="#00F0FF"/></linearGradient><linearGradient id="S" x1="280.743" y1="119.431" x2="175.244" y2="143.145" gradientUnits="userSpaceOnUse"><stop stop-color="#FF1CF7"/><stop offset="1" stop-color="#00F0FF"/></linearGradient><linearGradient id="T" x1="282.596" y1="117.554" x2="178.388" y2="146.042" gradientUnits="userSpaceOnUse"><stop stop-color="#FF1CF7"/><stop offset="1" stop-color="#00F0FF"/></linearGradient><linearGradient id="U" x1="284.409" y1="115.439" x2="182.542" y2="148.419" gradientUnits="userSpaceOnUse"><stop stop-color="#FF1CF7"/><stop offset="1" stop-color="#00F0FF"/></linearGradient><linearGradient id="V" x1="286.201" y1="114.39" x2="186.637" y2="151.836" gradientUnits="userSpaceOnUse"><stop stop-color="#FF1CF7"/><stop offset="1" stop-color="#00F0FF"/></linearGradient><linearGradient id="W" x1="286.958" y1="113.941" x2="191.076" y2="155.664" gradientUnits="userSpaceOnUse"><stop stop-color="#FF1CF7"/><stop offset="1" stop-color="#00F0FF"/></linearGradient><linearGradient id="X" x1="287.698" y1="112.033" x2="194.8" y2="157.29" gradientUnits="userSpaceOnUse"><stop stop-color="#FF1CF7"/><stop offset="1" stop-color="#00F0FF"/></linearGradient><linearGradient id="Y" x1="290.17" y1="110.971" x2="199.536" y2="161.561" gradientUnits="userSpaceOnUse"><stop stop-color="#FF1CF7"/><stop offset="1" stop-color="#00F0FF"/></linearGradient><linearGradient id="Z" x1="290.408" y1="110.043" x2="203.157" y2="163.794" gradientUnits="userSpaceOnUse"><stop stop-color="#FF1CF7"/><stop offset="1" stop-color="#00F0FF"/></linearGradient><linearGradient id="aa" x1="291.635" y1="109.852" x2="208.456" y2="168.154" gradientUnits="userSpaceOnUse"><stop stop-color="#FF1CF7"/><stop offset="1" stop-color="#00F0FF"/></linearGradient><linearGradient id="ab" x1="292.933" y1="109.024" x2="213.011" y2="170.387" gradientUnits="userSpaceOnUse"><stop stop-color="#FF1CF7"/><stop offset="1" stop-color="#00F0FF"/></linearGradient><linearGradient id="ac" x1="293.268" y1="108.219" x2="216.429" y2="172.664" gradientUnits="userSpaceOnUse"><stop stop-color="#FF1CF7"/><stop offset="1" stop-color="#00F0FF"/></linearGradient><linearGradient id="ad" x1="293.637" y1="108.271" x2="221.185" y2="175.986" gradientUnits="userSpaceOnUse"><stop stop-color="#FF1CF7"/><stop offset="1" stop-color="#00F0FF"/></linearGradient><linearGradient id="ae" x1="295.892" y1="108.405" x2="227.897" y2="180.146" gradientUnits="userSpaceOnUse"><stop stop-color="#FF1CF7"/><stop offset="1" stop-color="#00F0FF"/></linearGradient><linearGradient id="af" x1="296.301" y1="107.648" x2="232.025" y2="182.444" gradientUnits="userSpaceOnUse"><stop stop-color="#FF1CF7"/><stop offset="1" stop-color="#00F0FF"/></linearGradient><linearGradient id="ag" x1="297.744" y1="108.871" x2="238.832" y2="186.317" gradientUnits="userSpaceOnUse"><stop stop-color="#FF1CF7"/><stop offset="1" stop-color="#00F0FF"/></linearGradient><linearGradient id="ah" x1="297.545" y1="109.181" x2="243.632" y2="187.902" gradientUnits="userSpaceOnUse"><stop stop-color="#FF1CF7"/><stop offset="1" stop-color="#00F0FF"/></linearGradient><linearGradient id="ai" x1="298.945" y1="110.121" x2="250.212" y2="191.542" gradientUnits="userSpaceOnUse"><stop stop-color="#FF1CF7"/><stop offset="1" stop-color="#00F0FF"/></linearGradient><linearGradient id="aj" x1="299.603" y1="110.902" x2="256.41" y2="193.793" gradientUnits="userSpaceOnUse"><stop stop-color="#FF1CF7"/><stop offset="1" stop-color="#00F0FF"/></linearGradient><linearGradient id="ak" x1="301.007" y1="111.711" x2="263.667" y2="196.246" gradientUnits="userSpaceOnUse"><stop stop-color="#FF1CF7"/><stop offset="1" stop-color="#00F0FF"/></linearGradient><linearGradient id="al" x1="301.336" y1="112.527" x2="268.019" y2="198.105" gradientUnits="userSpaceOnUse"><stop stop-color="#FF1CF7"/><stop offset="1" stop-color="#00F0FF"/></linearGradient><linearGradient id="am" x1="303.116" y1="113.384" x2="275.306" y2="199.961" gradientUnits="userSpaceOnUse"><stop stop-color="#FF1CF7"/><stop offset="1" stop-color="#00F0FF"/></linearGradient><linearGradient id="an" x1="303.858" y1="115.287" x2="282.036" y2="201.691" gradientUnits="userSpaceOnUse"><stop stop-color="#FF1CF7"/><stop offset="1" stop-color="#00F0FF"/></linearGradient><linearGradient id="ao" x1="304.533" y1="116.216" x2="288.461" y2="202.08" gradientUnits="userSpaceOnUse"><stop stop-color="#FF1CF7"/><stop offset="1" stop-color="#00F0FF"/></linearGradient><linearGradient id="ap" x1="306.286" y1="119.194" x2="296.05" y2="203.15" gradientUnits="userSpaceOnUse"><stop stop-color="#FF1CF7"/><stop offset="1" stop-color="#00F0FF"/></linearGradient><linearGradient id="aq" x1="307.111" y1="120.151" x2="301.97" y2="204.066" gradientUnits="userSpaceOnUse"><stop stop-color="#FF1CF7"/><stop offset="1" stop-color="#00F0FF"/></linearGradient><linearGradient id="ar" x1="309" y1="122.158" x2="309" y2="204.708" gradientUnits="userSpaceOnUse"><stop stop-color="#FF1CF7"/><stop offset="1" stop-color="#00F0FF"/></linearGradient><clipPath id="a"><path fill="#fff" d="M0 0h340v198H0z"/></clipPath></defs></svg>